<svg width="20" height="24" viewBox="0 0 20 24" fill="none" xmlns="http://www.w3.org/2000/svg">
<path d="M10.4822 0.912208C10.4736 0.307747 9.82101 -0.0606502 9.30749 0.249089L3.16441 3.95444C2.6509 4.26418 2.66162 5.01976 3.18372 5.31448L9.42942 8.84012C9.95152 9.13484 10.5934 8.74766 10.5848 8.1432L10.5593 6.34558C10.7584 6.43767 10.9703 6.50583 11.1869 6.54722C11.9058 6.68457 12.6007 6.94436 13.2409 7.31958C14.392 7.99431 15.3107 9.00982 15.873 10.2291C16.4352 11.4483 16.6139 12.8126 16.3849 14.1377C16.156 15.4629 15.5304 16.6851 14.5926 17.6395C13.6549 18.5939 12.4501 19.2344 11.1408 19.4747C9.83157 19.715 8.48093 19.5434 7.27118 18.9832C6.06143 18.4229 5.05081 17.5009 4.37574 16.3417C4.00032 15.697 3.73873 14.9962 3.59808 14.2704C3.41131 13.3066 2.71088 12.4392 1.74227 12.3636C0.773668 12.288 -0.088268 13.0253 0.00725714 14.0026C0.14954 15.4585 0.602834 16.8732 1.34403 18.1461C2.38434 19.9325 3.94172 21.3533 5.80598 22.2166C7.67023 23.08 9.75162 23.3444 11.7692 22.9741C13.7868 22.6038 15.6434 21.6167 17.0886 20.146C18.5337 18.6753 19.4977 16.7918 19.8506 14.7497C20.2034 12.7076 19.928 10.6052 19.0616 8.72631C18.1952 6.84743 16.7794 5.2825 15.0055 4.24272C13.7415 3.5019 12.3391 3.05308 10.8981 2.91894C10.7638 2.90644 10.6343 2.91255 10.5109 2.93497L10.4822 0.912208Z" fill="#E0E3EA"/>
</svg>
