<svg width="28" height="25" viewBox="0 0 28 25" fill="none" xmlns="http://www.w3.org/2000/svg">
<path d="M28 7.19585C28 6.26886 27.8008 5.35096 27.4139 4.49455C27.0269 3.63813 26.4597 2.86 25.7447 2.20452C25.0297 1.54905 24.1809 1.02907 23.2467 0.674363C22.3125 0.319612 21.3112 0.137024 20.3 0.137024C19.2888 0.137024 18.2875 0.319612 17.3533 0.674363C16.4191 1.02907 15.5703 1.54905 14.8553 2.20452C14.5406 2.49297 14.2546 2.80515 14 3.13733C13.7454 2.80515 13.4594 2.49297 13.1447 2.20452C12.4297 1.54905 11.5809 1.02907 10.6467 0.674363C9.71246 0.319612 8.71118 0.137024 7.7 0.137024C6.68882 0.137024 5.68754 0.319612 4.75335 0.674363C3.81913 1.02907 2.97028 1.54905 2.25528 2.20452C1.54026 2.86 0.973096 3.63813 0.586118 4.49455C0.199161 5.35096 0 6.26886 0 7.19585C0 9.44934 0.917319 11.604 2.5375 13.1561L14 24.137L25.4625 13.1561C27.0827 11.604 28 9.44934 28 7.19585Z" fill="#3EE9BF"/>
</svg>
