<svg width="31" height="32" viewBox="0 0 31 32" fill="none" xmlns="http://www.w3.org/2000/svg">
<path d="M14.5676 2.54278C14.8976 1.69129 16.1024 1.6913 16.4324 2.54279L19.1846 9.64368C19.3264 10.0098 19.6694 10.2589 20.0614 10.2808L27.6652 10.7039C28.577 10.7546 28.9493 11.9005 28.2415 12.4775L22.3386 17.2892C22.0343 17.5373 21.9033 17.9405 22.0037 18.32L23.9509 25.6824C24.1844 26.5653 23.2097 27.2734 22.4423 26.7785L16.0419 22.6515C15.712 22.4387 15.288 22.4387 14.9581 22.6515L8.55774 26.7785C7.79026 27.2734 6.81556 26.5653 7.04906 25.6824L8.99633 18.32C9.09672 17.9405 8.96572 17.5373 8.6614 17.2892L2.7585 12.4775C2.05067 11.9005 2.42298 10.7546 3.33477 10.7039L10.9386 10.2808C11.3306 10.2589 11.6736 10.0098 11.8154 9.64368L14.5676 2.54278Z" fill="#1FBCFF"/>
</svg>
